HIERARCHY
ROOT joint_Root
{
	OFFSET 0.0 0.0 0.0
	CHANNELS 6 Xposition Yposition Zposition Zrotation Xrotation Yrotation 
	JOINT Hips
	{
		OFFSET 4.5925 91.4895 -427.239
		CHANNELS 6 Xposition Yposition Zposition Zrotation Xrotation Yrotation 
		JOINT Spine
		{
			OFFSET 15.7357 0.0 0.0
			CHANNELS 6 Xposition Yposition Zposition Zrotation Xrotation Yrotation 
			JOINT Chest
			{
				OFFSET 8.98455 -0.406207 0.0
				CHANNELS 6 Xposition Yposition Zposition Zrotation Xrotation Yrotation 
				JOINT Neck
				{
					OFFSET 16.3773 0.0 0.0
					CHANNELS 6 Xposition Yposition Zposition Zrotation Xrotation Yrotation 
					JOINT Head
					{
						OFFSET 6.45672 0.0 0.0
						CHANNELS 6 Xposition Yposition Zposition Zrotation Xrotation Yrotation 
						End Site
						{
							OFFSET 0.0 0.0 0.0
						}
					}
				}
				JOINT Shoulder_L
				{
					OFFSET 12.9942 -0.242716 4.98039
					CHANNELS 6 Xposition Yposition Zposition Zrotation Xrotation Yrotation 
					JOINT UpperArm_L
					{
						OFFSET 5.34809 0.0 0.0
						CHANNELS 6 Xposition Yposition Zposition Zrotation Xrotation Yrotation 
						JOINT LowerArm_L
						{
							OFFSET 24.3286 1.87007e-05 0.0
							CHANNELS 6 Xposition Yposition Zposition Zrotation Xrotation Yrotation 
							JOINT Hand_L
							{
								OFFSET 22.2916 0.0 0.0
								CHANNELS 6 Xposition Yposition Zposition Zrotation Xrotation Yrotation 
								End Site
								{
									OFFSET 0.0 0.0 0.0
								}
							}
						}
					}
				}
				JOINT Shoulder_R
				{
					OFFSET 12.9945 -0.242716 -4.98039
					CHANNELS 6 Xposition Yposition Zposition Zrotation Xrotation Yrotation 
					JOINT UpperArm_R
					{
						OFFSET -5.34813 0.0 0.0
						CHANNELS 6 Xposition Yposition Zposition Zrotation Xrotation Yrotation 
						JOINT LowerArm_R
						{
							OFFSET -24.3289 0.000322201 0.0
							CHANNELS 6 Xposition Yposition Zposition Zrotation Xrotation Yrotation 
							JOINT Hand_R
							{
								OFFSET -22.2915 -0.000108084 0.0
								CHANNELS 6 Xposition Yposition Zposition Zrotation Xrotation Yrotation 
								End Site
								{
									OFFSET 0.0 0.0 0.0
								}
							}
						}
					}
				}
			}
		}
		JOINT UpperLeg_L
		{
			OFFSET -2.19248 -6.46944 0.0
			CHANNELS 6 Xposition Yposition Zposition Zrotation Xrotation Yrotation 
			JOINT LowerLeg_L
			{
				OFFSET 39.0811 0.0 -1.23785e-05
				CHANNELS 6 Xposition Yposition Zposition Zrotation Xrotation Yrotation 
				JOINT Foot_L
				{
					OFFSET 40.9854 0.0 -1.26872e-05
					CHANNELS 6 Xposition Yposition Zposition Zrotation Xrotation Yrotation 
					JOINT Toes_L
					{
						OFFSET 11.7543 0.0 0.0
						CHANNELS 6 Xposition Yposition Zposition Zrotation Xrotation Yrotation 
						End Site
						{
							OFFSET 0.0 0.0 0.0
						}
					}
				}
			}
		}
		JOINT UpperLeg_R
		{
			OFFSET -2.19251 6.46944 0.0
			CHANNELS 6 Xposition Yposition Zposition Zrotation Xrotation Yrotation 
			JOINT LowerLeg_R
			{
				OFFSET -39.0811 -0.00228153 -0.0401928
				CHANNELS 6 Xposition Yposition Zposition Zrotation Xrotation Yrotation 
				JOINT Foot_R
				{
					OFFSET -40.9854 0.0 0.0
					CHANNELS 6 Xposition Yposition Zposition Zrotation Xrotation Yrotation 
					JOINT Toes_R
					{
						OFFSET -11.7543 0.0 0.0
						CHANNELS 6 Xposition Yposition Zposition Zrotation Xrotation Yrotation 
						End Site
						{
							OFFSET 0.0 0.0 0.0
						}
					}
				}
			}
		}
	}
}
MOTION
Frames:	5
Frame Time:	0.0333333
0.000000 0.000000 0.000000 0.000000 0.000000 -0.000000 -5.906820 91.383300 -1.278940 88.856800 11.877000 3.701070 15.735700 0.000005 -0.000001 92.410800 86.227100 -95.265300 8.984550 -0.406207 -0.000000 -0.207672 0.515793 -5.704620 16.377300 -0.000001 -0.000001 2.663880 -8.737820 6.147940 6.456720 -0.000001 -0.000000 -3.482520 -7.639940 1.466110 12.994200 -0.242716 4.980390 -91.994200 5.378380 -69.621600 5.348090 -0.000007 -0.000001 -64.560300 25.304700 -5.486730 24.328600 0.000019 0.000005 5.784750 20.511900 -16.125400 22.291600 -0.000001 0.000005 14.065000 5.132960 4.347610 12.994500 -0.242716 -4.980390 92.838800 -7.601250 -69.451100 -5.348130 -0.000001 -0.000004 -30.577000 -59.964800 -67.971800 -24.328900 0.000322 -0.000009 -3.752720 -2.100990 -60.780200 -22.291500 -0.000108 -0.000004 17.769300 5.529600 -7.778110 -2.192480 -6.469440 -0.000000 -172.108000 -6.578600 -8.708380 39.081100 -0.000007 -0.000012 -0.153634 0.298220 27.256300 40.985400 -0.000006 -0.000013 -1.923880 13.944900 -65.318100 11.754300 -0.000000 0.000003 -0.000080 -0.000852 -16.610400 -2.192510 6.469440 -0.000001 -179.057000 27.769500 175.816000 -39.081100 -0.002282 -0.040193 -0.092638 0.195701 26.117700 -40.985400 0.000008 0.000006 5.652740 4.930850 -69.493900 -11.754300 -0.000006 -0.000006 -0.002702 -0.037184 -18.085200
0.000000 0.000000 0.000000 0.000000 0.000000 -0.000000 -5.683340 91.391500 -1.364240 88.850000 10.930400 3.687630 15.735700 0.000005 -0.000001 91.956000 86.193200 -94.659200 8.984550 -0.406207 -0.000000 -0.140506 0.446174 -5.402520 16.377300 -0.000001 -0.000001 2.589650 -8.259620 5.911570 6.456720 -0.000001 -0.000000 -3.563050 -7.154030 1.594940 12.994200 -0.242716 4.980390 -92.059000 5.537790 -69.567600 5.348090 -0.000007 -0.000001 -64.486900 26.098400 -5.788030 24.328600 0.000019 0.000005 5.890030 20.223600 -16.616800 22.291600 -0.000001 0.000005 13.780800 5.141730 4.140280 12.994500 -0.242716 -4.980390 92.378400 -6.641890 -70.248000 -5.348130 -0.000001 -0.000004 -29.582900 -58.021600 -63.154100 -24.328900 0.000322 -0.000009 -4.725580 -1.952740 -67.584100 -22.291500 -0.000108 -0.000004 18.387300 5.527890 -7.703600 -2.192480 -6.469440 -0.000000 -172.244000 -6.917670 -8.605360 39.081100 -0.000007 -0.000012 -0.155982 0.301611 27.346500 40.985400 -0.000006 -0.000013 -1.874050 13.332900 -65.448600 11.754300 -0.000000 0.000003 -0.000086 -0.000904 -16.612400 -2.192510 6.469440 -0.000001 -179.221000 27.264100 175.699000 -39.081100 -0.002282 -0.040193 -0.103428 0.216968 26.195000 -40.985400 0.000008 0.000006 5.357250 5.460650 -69.362700 -11.754300 -0.000006 -0.000006 -0.002866 -0.039075 -18.162200
0.000000 0.000000 0.000000 0.000000 0.000000 -0.000000 -5.446050 91.411200 -1.427900 88.847900 9.955860 3.695930 15.735700 0.000005 -0.000001 91.366500 86.154000 -93.947500 8.984550 -0.406207 -0.000000 -0.062935 0.359583 -5.158600 16.377300 -0.000001 -0.000001 2.403050 -7.738640 5.625030 6.456720 -0.000001 -0.000000 -3.522330 -6.701130 1.893970 12.994200 -0.242716 4.980390 -92.130800 5.723680 -69.541100 5.348090 -0.000007 -0.000001 -64.234500 26.839200 -6.249410 24.328600 0.000019 0.000005 5.952360 19.863500 -17.058800 22.291600 -0.000001 0.000005 13.542700 5.148760 3.972970 12.994500 -0.242716 -4.980390 91.859600 -5.453990 -71.141900 -5.348130 -0.000001 -0.000004 -29.088900 -55.046100 -57.706200 -24.328900 0.000322 -0.000009 -5.527980 -1.458580 -75.256400 -22.291500 -0.000108 -0.000004 19.467300 5.523090 -7.496710 -2.192480 -6.469440 -0.000000 -172.419000 -6.981750 -8.411230 39.081100 -0.000007 -0.000012 -0.158101 0.305538 27.359500 40.985400 -0.000006 -0.000013 -1.890510 12.407000 -65.583200 11.754300 -0.000000 0.000003 -0.000079 -0.000842 -16.610000 -2.192510 6.469440 -0.000001 -179.450000 26.927400 175.671000 -39.081100 -0.002282 -0.040193 -0.112669 0.235722 26.197900 -40.985400 0.000008 0.000006 5.137140 6.206890 -69.222400 -11.754300 -0.000006 -0.000006 -0.002762 -0.037883 -18.113700
0.000000 0.000000 0.000000 0.000000 0.000000 -0.000000 -5.192150 91.422300 -1.450070 88.853900 8.822040 3.740560 15.735700 0.000005 -0.000001 91.290400 86.108500 -93.750500 8.984550 -0.406207 -0.000000 0.027008 0.341245 -4.916990 16.377300 -0.000001 -0.000001 2.168050 -7.140080 5.222790 6.456720 -0.000001 -0.000000 -3.616190 -6.271010 2.244950 12.994200 -0.242716 4.980390 -92.236500 5.952090 -69.362900 5.348090 -0.000007 -0.000001 -63.803300 27.700400 -6.940420 24.328600 0.000019 0.000005 6.000960 19.552500 -17.437600 22.291600 -0.000001 0.000005 13.478000 5.150380 3.934050 12.994500 -0.242716 -4.980390 91.260000 -3.889720 -72.038800 -5.348130 -0.000001 -0.000004 -28.716400 -50.923900 -51.888700 -24.328900 0.000322 -0.000009 -6.238720 -0.799044 -82.719500 -22.291500 -0.000108 -0.000004 20.775400 5.523090 -7.493260 -2.192480 -6.469440 -0.000000 -172.612000 -7.003650 -8.156330 39.081100 -0.000007 -0.000012 -0.162193 0.312780 27.409400 40.985400 -0.000006 -0.000013 -1.936490 11.297700 -65.772300 11.754300 -0.000000 0.000003 -0.000091 -0.000953 -16.614200 -2.192510 6.469440 -0.000001 -179.722000 26.485700 175.692000 -39.081100 -0.002282 -0.040193 -0.123647 0.257576 26.238200 -40.985400 0.000008 0.000006 4.915460 6.996460 -69.117300 -11.754300 -0.000006 -0.000006 -0.002667 -0.036776 -18.068600
0.000000 0.000000 0.000000 0.000000 0.000000 -0.000000 -4.944580 91.430100 -1.458490 88.887200 7.632590 3.792660 15.735700 0.000005 -0.000001 90.483900 86.071800 -92.813400 8.984550 -0.406207 -0.000000 0.098904 0.222093 -4.656270 16.377300 -0.000001 -0.000001 1.924110 -6.368040 4.672010 6.456720 -0.000001 -0.000000 -3.798420 -5.826190 2.645120 12.994200 -0.242716 4.980390 -92.394900 6.282510 -69.084200 5.348090 -0.000007 -0.000001 -63.272100 28.322400 -7.514130 24.328600 0.000019 0.000005 6.145220 19.279900 -18.060300 22.291600 -0.000001 0.000005 13.371300 5.148010 3.990790 12.994500 -0.242716 -4.980390 90.563300 -1.864710 -73.198000 -5.348130 -0.000001 -0.000004 -28.047200 -45.517500 -45.525300 -24.328900 0.000322 -0.000009 -7.487490 -0.104661 -89.192100 -22.291500 -0.000108 -0.000004 21.912100 5.532450 -7.897940 -2.192480 -6.469440 -0.000000 -172.812000 -7.135900 -7.850400 39.081100 -0.000007 -0.000012 -0.168261 0.324136 27.434300 40.985400 -0.000006 -0.000013 -1.987500 10.233900 -65.969500 11.754300 -0.000000 0.000003 -0.000105 -0.001073 -16.618700 -2.192510 6.469440 -0.000001 179.969000 26.116600 175.714000 -39.081100 -0.002282 -0.040193 -0.135660 0.281290 26.291500 -40.985400 0.000008 0.000006 4.638250 7.882290 -69.004800 -11.754300 -0.000006 -0.000006 -0.002605 -0.036052 -18.039200
